# xmcd
#
# Track frame offsets:
#        150
#        3837
#        22505
#        40892
#        64185
#        71460
#        90934
#        112302
#        128883
#        150262
#        155092
#        174858
#        195644
#        210537
#        234574
#        254672
#        257797
#
# Disc length: 3673 seconds
#
# Revision: 0
# Processed by: cddbd v1.5.1PL2 Copyright (c) Steve Scherf et al.
# Submitted via: ExactAudioCopy v0.95b3
#
DISCID=d70e5711
DTITLE=Various Artist - S.U.M.O - Rebounces
DYEAR=2005
DGENRE=House
TTITLE0=S.U.M.O. - At work
TTITLE1=Meitz - Zwakalani
TTITLE2=Ive Mendes - Natural High
TTITLE3=Dalminjo Featuring Malena - Despacito (Te doy me corazon)
TTITLE4=Mojo Project - Free
TTITLE5=Truby Trio Featuring Wunmi - Make a move
TTITLE6=Blaze - My Beat
TTITLE7=Rasmus Faber Featuring Emily McEwan - Ever after
TTITLE8=Bana Kuba - Bare Brass
TTITLE9=Lonesome Echo Production Featuring Mutabaruka - Spirit of drum
TTITLE9=s (intro)
TTITLE10=Lonesome Echo Production Featuring Mutabaruka - Spirit of dru
TTITLE10=ms
TTITLE11=A Bossa Eletrica - Skindo-le-le
TTITLE12=Mojo Project - Free (deep samba)
TTITLE13=Claude Monnet presents Monica Nogueira - Bahia Groove
TTITLE14=Mind Readers Featuring Malik Hart - Living my life undergroun
TTITLE14=d
TTITLE15=Mind Readers Featuring Malik Hart (bonus) - Living my life un
TTITLE15=derground
TTITLE16=Brett Johnson Featuring Dave Barker - Where are you going
EXTD=
EXTT0=
EXTT1=
EXTT2=
EXTT3=
EXTT4=
EXTT5=
EXTT6=
EXTT7=
EXTT8=
EXTT9=
EXTT10=
EXTT11=
EXTT12=
EXTT13=
EXTT14=
EXTT15=
EXTT16=
PLAYORDER=
